<svg xmlns="http://www.w3.org/2000/svg" width="201.114" height="84.596" viewBox="0 0 201.114 84.596"><defs><style>.a{fill:none;}.b{fill:#b2c91e;}.c{fill:#006cb8;}.d{fill:#6d6f72;}.e{fill:#1a1818;}</style></defs><g transform="translate(-851 -35)"><g transform="translate(851 35)"><g transform="translate(0)"><path class="a" d="M189.684,321.757v21.259h5.66a32.553,32.553,0,0,0,1.951-6.5C198.806,327.826,195.548,323.406,189.684,321.757Z" transform="translate(-169.585 -302.808)"/><path class="a" d="M197.8,341.014h21.213V311.685H189.684v5.342a24.581,24.581,0,0,1,8.145,1.5C204.268,321.02,203.681,329.5,197.8,341.014Z" transform="translate(-169.585 -300.806)"/><path class="b" d="M227.192,298.108H176.107v17.334a46.977,46.977,0,0,1,10.879-1.114v-5.342h29.328v29.329H195.1a103.683,103.683,0,0,1-6.525,10.879h38.616Z" transform="translate(-166.886 -298.108)"/><path class="b" d="M186.986,342.823V321.564a29.934,29.934,0,0,0-10.879-.538V353.7h10.884a75.085,75.085,0,0,0,5.654-10.879Z" transform="translate(-166.886 -302.615)"/><path class="c" d="M164.6,322.435a72.422,72.422,0,0,1,9.221-1.616v-1.077A61.813,61.813,0,0,0,164.6,322.435Z" transform="translate(-164.599 -302.408)"/><path class="c" d="M166.151,386.761A197.526,197.526,0,0,0,186.6,361.866h-1.585A192.887,192.887,0,0,1,166.151,386.761Z" transform="translate(-164.907 -310.78)"/><path class="c" d="M197.3,335.831a32.553,32.553,0,0,1-1.951,6.5H197.8c5.882-11.516,6.182-19.489.03-22.623a18.115,18.115,0,0,0-8.145-1.364v2.728C195.548,322.724,198.806,327.144,197.3,335.831Z" transform="translate(-169.585 -302.127)"/><path class="c" d="M195.345,348.289a75.086,75.086,0,0,1-5.654,10.879h1.585a103.679,103.679,0,0,0,6.525-10.879Z" transform="translate(-169.586 -308.081)"/><path class="b" d="M186.986,321.077v-2.728a46.976,46.976,0,0,0-10.879,1.114v1.077A29.934,29.934,0,0,1,186.986,321.077Z" transform="translate(-166.886 -302.128)"/></g><path class="c" d="M248.041,317.168s-29.614-7.767-38.724,7.106c-8.7,14.21-2.842,40.855,6.04,61.816,0,0-10.832-34.62-3.376-55.954C218.376,311.839,248.041,317.168,248.041,317.168Z" transform="translate(-172.636 -301.493)"/><rect class="b" width="9.77" height="10.924" transform="translate(30.198 40.277)"/><g transform="translate(63.139 25.176)"><path class="d" d="M247.868,332.461H243.4v-2.633h12.169v2.633H251.1v11.33h-3.231Z" transform="translate(-243.399 -329.588)"/><path class="d" d="M271.564,341.2v2.593H260.752V329.828H271.3v2.593h-7.341v3.032h6.484v2.513h-6.484V341.2Z" transform="translate(-246.848 -329.588)"/><path class="d" d="M280.012,343.044a6.925,6.925,0,0,1-2.713-2.573,7.505,7.505,0,0,1,0-7.441,6.919,6.919,0,0,1,2.713-2.573,8.655,8.655,0,0,1,7.162-.289A6.574,6.574,0,0,1,289.637,332l-2.074,1.915a4.464,4.464,0,0,0-3.51-1.636,4.666,4.666,0,0,0-2.315.569,4.045,4.045,0,0,0-1.586,1.586,5,5,0,0,0,0,4.628,4.035,4.035,0,0,0,1.586,1.586,4.666,4.666,0,0,0,2.315.569,4.438,4.438,0,0,0,3.51-1.655l2.074,1.914a6.464,6.464,0,0,1-2.473,1.856,8.211,8.211,0,0,1-3.291.639A8.017,8.017,0,0,1,280.012,343.044Z" transform="translate(-249.94 -329.529)"/><path class="d" d="M308.463,329.828v13.963h-3.232v-5.725h-6.344v5.725h-3.231V329.828h3.231v5.505h6.344v-5.505Z" transform="translate(-253.785 -329.588)"/><path class="d" d="M328.578,329.828v13.963h-2.654l-6.961-8.478v8.478h-3.192V329.828h2.673l6.942,8.478v-8.478Z" transform="translate(-257.783 -329.588)"/><path class="d" d="M338.513,343.033a6.959,6.959,0,0,1-2.734-2.582,7.43,7.43,0,0,1,0-7.4,6.966,6.966,0,0,1,2.734-2.583,8.642,8.642,0,0,1,7.829,0,7.121,7.121,0,0,1,0,12.567,8.635,8.635,0,0,1-7.829,0Zm6.154-2.384a4.069,4.069,0,0,0,1.566-1.586,4.991,4.991,0,0,0,0-4.628,4.08,4.08,0,0,0-1.566-1.586,4.672,4.672,0,0,0-4.469,0,4.08,4.08,0,0,0-1.566,1.586,4.991,4.991,0,0,0,0,4.628,4.069,4.069,0,0,0,1.566,1.586,4.672,4.672,0,0,0,4.469,0Z" transform="translate(-261.563 -329.529)"/><path class="d" d="M369.607,343.791l-.021-8.379-4.11,6.9h-1.456l-4.089-6.723v8.2H356.9V329.828h2.673L364.8,338.5l5.146-8.677H372.6l.04,13.963Z" transform="translate(-265.957 -329.588)"/><path class="d" d="M389.416,340.8h-6.483l-1.236,2.992h-3.312l6.223-13.963H387.8l6.243,13.963h-3.392Zm-1.017-2.454L386.184,333l-2.215,5.346Z" transform="translate(-270.227 -329.588)"/><path class="d" d="M407.25,343.791l-3.372-4.848-3.312,4.848h-3.711l5.167-7.1-4.907-6.862h3.671L404,334.356l3.151-4.528h3.492l-4.868,6.743,5.207,7.221Z" transform="translate(-273.898 -329.588)"/></g><g transform="translate(67.243 44.047)"><path class="e" d="M254.623,360l-.01-4.97-2.379,4.142H251.8l-2.379-4.113V360h-.9v-6.822h.77l2.747,4.8,2.708-4.8h.77l.01,6.822Z" transform="translate(-248.521 -353.1)"/><path class="e" d="M260.9,353.178h.941V360H260.9Z" transform="translate(-250.981 -353.1)"/><path class="e" d="M265.713,353.178h2.774a3.9,3.9,0,0,1,1.852.429,3.084,3.084,0,0,1,1.255,1.2,3.762,3.762,0,0,1,0,3.558,3.079,3.079,0,0,1-1.255,1.2,3.9,3.9,0,0,1-1.852.429h-2.774Zm2.717,5.974a2.965,2.965,0,0,0,1.406-.321,2.284,2.284,0,0,0,.935-.9,2.891,2.891,0,0,0,0-2.68,2.279,2.279,0,0,0-.935-.9,2.955,2.955,0,0,0-1.406-.322h-1.777v5.126Z" transform="translate(-251.938 -353.1)"/><path class="e" d="M276.58,353.178h2.774a3.893,3.893,0,0,1,1.853.429,3.084,3.084,0,0,1,1.255,1.2,3.762,3.762,0,0,1,0,3.558,3.079,3.079,0,0,1-1.255,1.2,3.894,3.894,0,0,1-1.853.429H276.58Zm2.718,5.974a2.964,2.964,0,0,0,1.405-.321,2.286,2.286,0,0,0,.936-.9,2.9,2.9,0,0,0,0-2.68,2.281,2.281,0,0,0-.936-.9,2.955,2.955,0,0,0-1.405-.322H277.52v5.126Z" transform="translate(-254.098 -353.1)"/><path class="e" d="M287.447,353.178h.941v5.974h3.563V360h-4.5Z" transform="translate(-256.257 -353.1)"/><path class="e" d="M300.368,359.152V360h-4.776v-6.822h4.645v.848h-3.7v2.1h3.3v.828h-3.3v2.2Z" transform="translate(-257.876 -353.1)"/><path class="e" d="M313.735,359.152V360h-4.777v-6.822H313.6v.848h-3.7v2.1h3.3v.828h-3.3v2.2Z" transform="translate(-260.533 -353.1)"/><path class="e" d="M321.941,358.295h-3.5L317.719,360h-.969l2.981-6.822h.931l2.99,6.822h-.987Zm-.33-.78-1.42-3.343-1.42,3.343Z" transform="translate(-262.081 -353.1)"/><path class="e" d="M328.094,359.82a2.908,2.908,0,0,1-1.086-.619l.347-.76a2.855,2.855,0,0,0,.965.57,3.42,3.42,0,0,0,1.207.22,2.121,2.121,0,0,0,1.224-.288.894.894,0,0,0,.4-.765.769.769,0,0,0-.221-.57,1.467,1.467,0,0,0-.545-.336q-.325-.117-.917-.264a9.11,9.11,0,0,1-1.2-.369,1.984,1.984,0,0,1-.78-.57,1.558,1.558,0,0,1-.325-1.038,1.8,1.8,0,0,1,.278-.985,1.914,1.914,0,0,1,.841-.7,3.3,3.3,0,0,1,1.4-.263,4.313,4.313,0,0,1,1.147.155,3.02,3.02,0,0,1,.969.449l-.311.78a3.347,3.347,0,0,0-.884-.414,3.2,3.2,0,0,0-.921-.141,1.981,1.981,0,0,0-1.2.3.936.936,0,0,0-.4.78.757.757,0,0,0,.226.57,1.544,1.544,0,0,0,.559.341,8.234,8.234,0,0,0,.908.258,9.071,9.071,0,0,1,1.194.371,2.01,2.01,0,0,1,.776.565,1.523,1.523,0,0,1,.324,1.023,1.787,1.787,0,0,1-.282.98,1.9,1.9,0,0,1-.856.7,3.428,3.428,0,0,1-1.411.259A4.371,4.371,0,0,1,328.094,359.82Z" transform="translate(-264.12 -353.081)"/><path class="e" d="M337.173,354.026h-2.256v-.848h5.445v.848h-2.256V360h-.932Z" transform="translate(-265.692 -353.1)"/><path class="e" d="M353.272,359.152V360h-4.777v-6.822h4.645v.848h-3.7v2.1h3.3v.828h-3.3v2.2Z" transform="translate(-268.391 -353.1)"/><path class="e" d="M363.192,353.178V360h-.771l-3.949-5.087V360h-.941v-6.822h.771l3.95,5.087v-5.087Z" transform="translate(-270.186 -353.1)"/><path class="e" d="M372.662,356.531h.9v2.66a3.458,3.458,0,0,1-1.138.643,4.134,4.134,0,0,1-1.355.224,3.577,3.577,0,0,1-1.8-.454,3.292,3.292,0,0,1-1.255-1.248,3.739,3.739,0,0,1,0-3.582,3.242,3.242,0,0,1,1.26-1.247,3.914,3.914,0,0,1,3.244-.18,2.927,2.927,0,0,1,1.1.784l-.582.6a2.605,2.605,0,0,0-1.909-.788,2.7,2.7,0,0,0-1.349.336,2.424,2.424,0,0,0-.936.935,2.845,2.845,0,0,0,0,2.691,2.453,2.453,0,0,0,.936.94,2.651,2.651,0,0,0,1.34.341,2.718,2.718,0,0,0,1.542-.438Z" transform="translate(-272.181 -353.081)"/><path class="e" d="M382.895,356.531h.9v2.66a3.458,3.458,0,0,1-1.138.643,4.128,4.128,0,0,1-1.354.224,3.577,3.577,0,0,1-1.8-.454,3.294,3.294,0,0,1-1.256-1.248,3.745,3.745,0,0,1,0-3.582,3.242,3.242,0,0,1,1.26-1.247,3.914,3.914,0,0,1,3.244-.18,2.927,2.927,0,0,1,1.1.784l-.583.6a2.6,2.6,0,0,0-1.909-.788,2.7,2.7,0,0,0-1.349.336,2.422,2.422,0,0,0-.935.935,2.845,2.845,0,0,0,0,2.691,2.451,2.451,0,0,0,.935.94,2.653,2.653,0,0,0,1.34.341,2.716,2.716,0,0,0,1.542-.438Z" transform="translate(-274.215 -353.081)"/><path class="e" d="M388.313,361.244a.659.659,0,0,1-.187-.482.647.647,0,0,1,.187-.473.615.615,0,0,1,.452-.19.591.591,0,0,1,.442.185.661.661,0,0,1,.178.478.668.668,0,0,1-.183.482.585.585,0,0,1-.437.19A.612.612,0,0,1,388.313,361.244Z" transform="translate(-276.267 -354.476)"/><path class="e" d="M392.655,353.178h.941v5.974h3.563V360h-4.5Z" transform="translate(-277.167 -353.1)"/><path class="e" d="M400.8,353.178h.941v5.974H405.3V360h-4.5Z" transform="translate(-278.786 -353.1)"/><path class="e" d="M409.82,359.606a3.267,3.267,0,0,1-1.245-1.248,3.763,3.763,0,0,1,0-3.576,3.254,3.254,0,0,1,1.25-1.248,3.789,3.789,0,0,1,3.2-.184,2.887,2.887,0,0,1,1.091.794l-.611.614a2.412,2.412,0,0,0-1.853-.808,2.605,2.605,0,0,0-1.325.341,2.425,2.425,0,0,0-.926.941,2.86,2.86,0,0,0,0,2.68,2.423,2.423,0,0,0,.926.94,2.606,2.606,0,0,0,1.325.341,2.418,2.418,0,0,0,1.853-.818l.611.614a2.924,2.924,0,0,1-1.1.8,3.593,3.593,0,0,1-1.415.273A3.534,3.534,0,0,1,409.82,359.606Z" transform="translate(-280.242 -353.081)"/></g></g></g></svg>